<svg width="30" height="28" viewBox="0 0 30 28" fill="none" xmlns="http://www.w3.org/2000/svg">
<path fill-rule="evenodd" clip-rule="evenodd" d="M18.7125 0.0168753C20.3525 0.00687533 21.7025 0.0318753 22.7625 0.0918753C23.7558 0.139565 24.7297 0.384312 25.6275 0.811875C26.9956 1.52312 28.1113 2.63876 28.8225 4.00688C29.2501 4.9047 29.4948 5.87859 29.5425 6.87187C29.6325 7.93687 29.6175 9.27187 29.6175 10.9219V11.8219C29.6275 13.1919 29.6075 14.3169 29.5575 15.1969C29.4975 16.0969 29.3775 16.8769 29.0625 17.6269C28.3037 19.4002 26.8909 20.8131 25.1175 21.5719C24.3875 21.8619 23.5775 22.0319 22.6875 22.0819C21.8875 22.1219 20.8975 22.1369 19.7175 22.1269L12.9075 26.6719L12.0975 27.1819C11.8575 27.3169 11.4375 27.5119 10.9425 27.4819C10.3425 27.4369 9.7875 27.1519 9.4125 26.6719C9.1125 26.2669 9.0525 25.8169 9.0225 25.5469C9.0025 25.2469 8.9925 24.9219 8.9925 24.5719V22.1269C8.2125 22.1369 7.5275 22.1169 6.9375 22.0669C6.10564 22.0379 5.28442 21.8706 4.5075 21.5719C2.73413 20.8131 1.32128 19.4002 0.5625 17.6269C0.2625 16.8869 0.0975 16.0769 0.0675 15.1969C0.00749995 14.3169 -0.0125 13.1919 0.00750001 11.8219V10.9219C-0.00249999 9.28187 0.0224999 7.93187 0.0824999 6.87187C0.13019 5.87859 0.374937 4.9047 0.8025 4.00688C1.51374 2.63876 2.62939 1.52312 3.9975 0.811875C4.89532 0.384312 5.86921 0.139565 6.8625 0.0918753C7.9225 0.0218753 9.2725 -0.00812501 10.9125 0.00187499L18.7125 0.0168753ZM9.5625 12.3919C9.25039 12.4393 8.96562 12.5971 8.75985 12.8365C8.55408 13.0759 8.44093 13.3812 8.44093 13.6969C8.44093 14.0126 8.55408 14.3178 8.75985 14.5572C8.96562 14.7967 9.25039 14.9544 9.5625 15.0019H14.8125C15.1246 14.9544 15.4094 14.7967 15.6152 14.5572C15.8209 14.3178 15.9341 14.0126 15.9341 13.6969C15.9341 13.3812 15.8209 13.0759 15.6152 12.8365C15.4094 12.5971 15.1246 12.4393 14.8125 12.3919H9.5625ZM9.5625 7.14188C9.2144 7.14188 8.88056 7.28016 8.63442 7.5263C8.38828 7.77244 8.25 8.10628 8.25 8.45438C8.25 8.80247 8.38828 9.13631 8.63442 9.38245C8.88056 9.62859 9.2144 9.76688 9.5625 9.76688H20.0625C20.4126 9.76688 20.7483 9.6278 20.9959 9.38026C21.2434 9.13271 21.3825 8.79696 21.3825 8.44687C21.3825 8.09679 21.2434 7.76104 20.9959 7.51349C20.7483 7.26595 20.4126 7.12687 20.0625 7.12687L9.5625 7.14188Z" fill="black" fill-opacity="0.75"/>
</svg>
