<svg width="27" height="30" viewBox="0 0 27 30" fill="none" xmlns="http://www.w3.org/2000/svg">
<path fill-rule="evenodd" clip-rule="evenodd" d="M18.5719 0.00749999C19.2919 0.00749999 19.8919 0.5925 19.8919 1.3125V3.0975C20.4835 3.1539 21.0701 3.25418 21.6469 3.3975C21.9869 3.4975 22.3169 3.6325 22.6369 3.8025C24.0969 4.56098 25.267 5.77851 25.9669 7.2675L26.0119 7.3875L26.0869 7.5525C26.2186 7.89265 26.319 8.24411 26.3869 8.6025C26.4599 8.99929 26.51 9.39995 26.5369 9.8025V9.8625L26.5519 9.9675L26.5969 10.6425V10.7925L26.6269 11.5125V11.8125L26.6419 13.1325V18.7275C26.6619 20.3675 26.6319 21.7175 26.5519 22.7775C26.5042 23.7708 26.2594 24.7447 25.8319 25.6425C25.1206 27.0106 24.005 28.1263 22.6369 28.8375C21.7391 29.2651 20.7652 29.5098 19.7719 29.5575C18.7069 29.6475 17.3719 29.6325 15.7219 29.6325H10.9219C9.28187 29.6425 7.93188 29.6175 6.87188 29.5575C5.87859 29.5098 4.9047 29.2651 4.00688 28.8375C2.63876 28.1263 1.52312 27.0106 0.811875 25.6425C0.384312 24.7447 0.139565 23.7708 0.0918753 22.7775C0.0218753 21.7175 -0.00812501 20.3675 0.00187499 18.7275V13.1175L0.0168753 11.8125V11.5125L0.0468753 10.8075V10.6575C0.0468753 10.4175 0.0618753 10.1875 0.0918753 9.9675V9.8175L0.271875 8.6025C0.271875 8.5525 0.281875 8.5075 0.301875 8.4675L0.451875 7.8675L0.511875 7.7025L0.556875 7.5525L0.811875 6.9975C1.64143 5.41542 3.00844 4.18138 4.66688 3.5175C5.29688 3.2875 5.99688 3.1475 6.76688 3.0975V1.3125C6.76688 0.964403 6.90516 0.630564 7.1513 0.384422C7.39744 0.138281 7.73128 0 8.07938 0C8.42747 0 8.76131 0.138281 9.00745 0.384422C9.25359 0.630564 9.39188 0.964403 9.39188 1.3125V3.0075H17.2669V1.3125C17.2669 0.5925 17.8519 0.00749999 18.5719 0.00749999ZM2.64188 13.1325V18.7125C2.64188 20.4075 2.64188 21.6075 2.71688 22.5525C2.79188 23.4525 2.92688 24.0225 3.15188 24.4425C3.61188 25.3425 4.29188 26.0225 5.19188 26.4825C5.61188 26.7075 6.16688 26.8425 7.08188 26.9325C8.02688 26.9925 9.22688 27.0075 10.9219 27.0075H15.7219C17.4169 27.0075 18.6169 27.0075 19.5619 26.9175C20.216 26.9116 20.861 26.7631 21.4519 26.4825C22.3519 26.0225 23.0319 25.3425 23.4919 24.4425C23.7169 24.0225 23.8519 23.4675 23.9419 22.5525C24.0019 21.6075 24.0169 20.4075 24.0169 18.7125V13.1175L2.64188 13.1325Z" fill="black" fill-opacity="0.75"/>
</svg>
